<?xml version="1.0" encoding="UTF-8"?>
<svg width="20px" height="30px" viewBox="0 0 20 30" version="1.1" xmlns="http://www.w3.org/2000/svg" xmlns:xlink="http://www.w3.org/1999/xlink">
    <!-- Generator: Sketch 53.2 (72643) - https://sketchapp.com -->
    <title>icon_arrow_right</title>
    <desc>Created with Sketch.</desc>
    <g id="Page-1" stroke="none" stroke-width="1" fill="none" fill-rule="evenodd">
        <g id="Artboard" transform="translate(-69.000000, -642.000000)" fill="#FFFFFF" fill-rule="nonzero">
            <g id="icon_arrow_right" transform="translate(78.714286, 657.000000) rotate(-270.000000) translate(-78.714286, -657.000000) translate(63.714286, 647.000000)">
                <path d="M29.8168727,9.42157784 L20.4418796,0.18050416 C20.1977196,-0.0601680532 19.8022121,-0.0601680532 19.5581107,0.18050416 C19.3139507,0.421176372 19.3139507,0.811034168 19.5581107,1.05164862 L27.8662296,9.24108812 L0.625019073,9.24108812 C0.279550576,9.24108812 0,9.51664539 0,9.85717896 C0,10.1977125 0.279550576,10.4732698 0.625019073,10.4732698 L27.8662296,10.4732698 L19.5581107,18.6626515 C19.3139507,18.9033237 19.3139507,19.2931815 19.5581107,19.533796 C19.6801614,19.6541032 19.8401222,19.7142857 20.0000244,19.7142857 C20.1599266,19.7142857 20.3198289,19.6541032 20.4419382,19.533796 L29.8169313,10.2927223 C30.0610327,10.0521079 30.0610327,9.66225006 29.8168727,9.42157784 Z" id="Path"></path>
            </g>
        </g>
    </g>
</svg>